<svg width="32" height="32" viewBox="0 0 32 32" fill="none" xmlns="http://www.w3.org/2000/svg">
<rect width="32" height="32" rx="8" fill="#12181B"/>
<path d="M7.05251 12C7.25585 12 7.35752 12.2128 7.35752 12.6385V12.7324C7.35752 13.133 7.22049 13.4022 6.94642 13.5399C6.4425 13.8028 5.72639 14.2285 4.79811 14.8169C3.86983 15.4053 3.33496 15.7433 3.19351 15.831V16.1878C5.22689 17.4272 6.48228 18.1909 6.95969 18.4789C7.22491 18.6416 7.35752 18.9045 7.35752 19.2676V19.3615C7.35752 19.7872 7.25143 20 7.03925 20C6.95968 20 6.31873 19.6307 5.11638 18.892C3.91403 18.1408 3.14488 17.6714 2.80893 17.4836C2.48182 17.2833 2.26522 17.0955 2.15913 16.9202C2.05304 16.7324 2 16.4757 2 16.1502V15.8685C2 15.5305 2.04862 15.2801 2.14587 15.1174C2.25196 14.9546 2.48182 14.7606 2.83545 14.5352C3.19793 14.3099 4.41796 13.5524 6.49554 12.2629C6.78729 12.0876 6.97295 12 7.05251 12Z" fill="#18FFFF"/>
<path d="M30 15.8685V16.1502C30 16.4883 29.947 16.7449 29.8409 16.9202C29.7436 17.0829 29.5712 17.2394 29.3237 17.3897L25.5045 19.7371C25.2127 19.9124 25.0271 20 24.9475 20C24.7353 20 24.6292 19.7872 24.6292 19.3615V19.2676C24.6292 18.9171 24.7663 18.6541 25.0403 18.4789C27.0737 17.252 28.3291 16.4883 28.8065 16.1878V15.831C28.3556 15.5556 27.7058 15.1612 26.8571 14.6479C26.0172 14.1346 25.416 13.7653 25.0536 13.5399C24.7707 13.4147 24.6292 13.1455 24.6292 12.7324V12.6385C24.6292 12.2128 24.7309 12 24.9342 12C25.0315 12 25.1243 12.025 25.2127 12.0751C27.4494 13.4773 28.7534 14.2911 29.1248 14.5164C29.4961 14.7418 29.7348 14.9484 29.8409 15.1361C29.947 15.3114 30 15.5556 30 15.8685Z" fill="#18FFFF"/>
<path d="M13.6294 11.6688C13.6294 11.4476 13.6087 11.2873 13.5674 11.1882C13.5343 11.089 13.5177 10.9975 13.5177 10.9135C13.5177 10.7991 13.5839 10.7038 13.7163 10.6275C13.8487 10.5512 14.0059 10.513 14.1879 10.513C14.6099 10.513 14.9492 10.616 15.2057 10.822C15.4704 11.0203 15.6028 11.2645 15.6028 11.5544V20.2397C15.6028 20.8042 15.6525 21.2848 15.7518 21.6815C15.8511 22.0782 16 22.4024 16.1986 22.6542C16.3972 22.9059 16.6413 23.0928 16.9309 23.2149C17.2204 23.3293 17.5514 23.3865 17.9238 23.3865C18.2796 23.3865 18.6064 23.3255 18.9043 23.2034C19.2104 23.0814 19.4752 22.9135 19.6986 22.6999C19.922 22.4863 20.0957 22.2346 20.2199 21.9447C20.344 21.6548 20.406 21.3382 20.406 20.9949C20.406 20.4685 20.3067 20.0299 20.1082 19.679C19.9096 19.328 19.6489 19.0458 19.3262 18.8322C19.0118 18.6186 18.6519 18.4698 18.2465 18.3859C17.8493 18.2943 17.4521 18.2486 17.055 18.2486C16.9805 18.2486 16.906 18.2066 16.8316 18.1227C16.7571 18.0312 16.695 17.9205 16.6454 17.7908C16.5957 17.6612 16.5585 17.5238 16.5337 17.3789C16.5089 17.2263 16.5047 17.0852 16.5213 16.9555C16.5378 16.8258 16.5751 16.719 16.633 16.6351C16.6992 16.5435 16.7985 16.4978 16.9309 16.4978C17.1294 16.4978 17.3694 16.4749 17.6507 16.4291C17.932 16.3833 18.2258 16.3032 18.5319 16.1888C18.8381 16.0668 19.1401 15.9065 19.4379 15.7082C19.7358 15.5099 20.0047 15.2581 20.2447 14.953C20.4846 14.6402 20.6791 14.274 20.828 13.8544C20.977 13.4272 21.0514 12.9313 21.0514 12.3668C21.0514 11.9243 20.9687 11.4895 20.8032 11.0623C20.646 10.6275 20.3895 10.2422 20.0337 9.90655C19.6779 9.56326 19.2228 9.28862 18.6684 9.08264C18.1141 8.86904 17.448 8.76224 16.6702 8.76224C15.6525 8.76224 14.7796 8.90718 14.0514 9.19708C13.3233 9.48697 12.7275 9.87603 12.2642 10.3643C11.8091 10.8525 11.474 11.4209 11.2589 12.0693C11.0437 12.7101 10.9362 13.3891 10.9362 14.1062C10.9362 14.6249 10.9817 15.0636 11.0727 15.4221C11.172 15.773 11.2796 16.0629 11.3954 16.2918C11.5112 16.513 11.6188 16.6771 11.7181 16.7839C11.8174 16.8907 11.8753 16.9517 11.8918 16.9669C12.0325 16.9288 12.1318 16.9441 12.1897 17.0127C12.2476 17.0814 12.2766 17.1729 12.2766 17.2873C12.2766 17.3942 12.2352 17.5544 12.1525 17.768C12.078 17.9816 11.9746 18.1837 11.8422 18.3744C11.7098 18.5575 11.5567 18.6987 11.383 18.7978C11.2092 18.8894 11.0313 18.8703 10.8493 18.7406C10.75 18.6567 10.5969 18.5041 10.3901 18.2829C10.1832 18.0617 9.97636 17.768 9.7695 17.4018C9.57092 17.028 9.39303 16.5817 9.23582 16.0629C9.07861 15.5366 9 14.9301 9 14.2435C9 13.1449 9.18617 12.1532 9.55851 11.2683C9.93085 10.3757 10.4521 9.61284 11.1223 8.97966C11.8008 8.34647 12.6076 7.85823 13.5426 7.51494C14.4775 7.17165 15.5118 7 16.6454 7C17.6052 7 18.474 7.12206 19.2518 7.36618C20.0378 7.60267 20.708 7.94978 21.2624 8.4075C21.8168 8.86523 22.2429 9.42594 22.5408 10.0896C22.8469 10.7457 23 11.4895 23 12.321C23 12.9619 22.9173 13.5416 22.7518 14.0604C22.5863 14.5791 22.3546 15.0445 22.0567 15.4565C21.7671 15.8684 21.4196 16.2346 21.0142 16.555C20.617 16.8678 20.1868 17.1386 19.7234 17.3675C20.0957 17.4666 20.4433 17.6154 20.766 17.8137C21.0887 18.0045 21.37 18.2486 21.6099 18.5461C21.8499 18.8436 22.0402 19.1945 22.1809 19.5989C22.3215 19.9956 22.3918 20.4456 22.3918 20.9491C22.3918 21.5366 22.276 22.0782 22.0443 22.5741C21.8209 23.0699 21.5106 23.4971 21.1135 23.8557C20.7163 24.2142 20.2447 24.4927 19.6986 24.691C19.1608 24.897 18.5774 25 17.9486 25C17.1129 25 16.4178 24.8818 15.8635 24.6453C15.3091 24.4164 14.8664 24.0922 14.5355 23.6726C14.2045 23.2454 13.9687 22.7381 13.828 22.1507C13.6956 21.5556 13.6294 20.8957 13.6294 20.171V11.6688Z" fill="#18FFFF"/>
</svg>
